<?xml version="1.0" encoding="UTF-8"?>
<svg width="300px" height="300px" viewBox="0 0 300 300" version="1.1" xmlns="http://www.w3.org/2000/svg" xmlns:xlink="http://www.w3.org/1999/xlink">
    <!-- Generator: Sketch 47.1 (45422) - http://www.bohemiancoding.com/sketch -->
    <title>Shape</title>
    <desc>Created with Sketch.</desc>
    <defs></defs>
    <g id="Page-1" stroke="none" stroke-width="1" fill="none" fill-rule="evenodd">
        <g id="next" fill-rule="nonzero" fill="#FFFFFF">
            <path d="M150,0 C67.157,0 0,67.157 0,150 C0,232.841 67.157,300 150,300 C232.843,300 300,232.841 300,150 C300,67.157 232.843,0 150,0 Z M195.708,160.159 C194.977,160.89 194.175,161.508 193.34,162.045 L137.045,218.34 C134.311,221.076 130.727,222.443 127.143,222.443 C123.559,222.443 119.977,221.076 117.241,218.34 C111.771,212.87 111.771,204 117.241,198.532 L165.75,150.016 L117.485,101.751 C112.015,96.278 112.015,87.411 117.485,81.943 C122.955,76.473 131.823,76.476 137.293,81.94 L193.339,137.983 C194.174,138.52 194.976,139.137 195.704,139.869 C198.5,142.665 199.849,146.348 199.786,150.015 C199.852,153.68 198.506,157.361 195.708,160.159 Z" id="Shape"></path>
        </g>
    </g>
</svg>